<?xml version="1.0" standalone="no"?>
<!DOCTYPE svg PUBLIC "-//W3C//DTD SVG 20010904//EN"
 "http://www.w3.org/TR/2001/REC-SVG-20010904/DTD/svg10.dtd">
<svg version="1.0" xmlns="http://www.w3.org/2000/svg"
 width="400.000000pt" height="400.000000pt" viewBox="0 0 400.000000 400.000000"
 preserveAspectRatio="xMidYMid meet">
<metadata>
Created by potrace 1.14, written by Peter Selinger 2001-2017
</metadata>
<g transform="translate(0.000000,400.000000) scale(0.100000,-0.100000)"
fill="#000000" stroke="none">
<path d="M937 3170 c-131 -51 -197 -165 -197 -340 0 -88 18 -169 60 -280 30
-75 115 -220 140 -235 24 -15 18 3 -21 60 -182 270 -208 574 -61 721 50 50 94
66 182 67 153 0 317 -102 453 -280 21 -29 44 -53 49 -53 5 0 20 7 33 16 14 9
25 15 26 13 0 -2 2 -24 5 -48 10 -97 58 -212 122 -290 20 -24 38 -39 40 -32 2
6 -6 43 -17 81 -22 72 -39 266 -28 312 7 28 46 43 143 54 l60 6 3 -56 c4 -115
46 -256 75 -256 23 0 29 40 30 187 1 73 5 133 9 133 5 0 39 -5 77 -11 67 -11
70 -13 75 -43 13 -67 -38 -293 -87 -389 -45 -89 25 -43 93 60 46 71 99 208 99
259 0 34 12 64 26 64 7 0 39 -13 71 -30 31 -16 61 -30 65 -30 4 0 20 19 36 43
78 111 235 237 345 273 65 22 179 22 228 1 212 -92 221 -460 19 -758 -48 -70
-49 -105 -1 -39 170 234 219 530 117 705 -64 109 -203 158 -341 121 -143 -38
-270 -133 -392 -294 l-18 -23 -67 30 c-149 68 -352 101 -488 80 -121 -19 -277
-65 -328 -97 -12 -8 -24 -13 -26 -11 -2 2 -25 31 -52 64 -54 67 -66 80 -144
140 -145 111 -297 150 -413 105z"/>
<path d="M936 3060 c-64 -20 -118 -100 -129 -191 -10 -85 23 -219 80 -328 39
-74 122 -191 136 -191 15 0 104 57 145 92 102 89 246 259 258 306 13 50 -150
218 -270 277 -78 39 -165 53 -220 35z m207 -48 c73 -36 146 -98 219 -185 56
-67 56 -73 0 -152 -76 -107 -290 -305 -331 -305 -31 0 -159 231 -186 335 -28
110 -15 246 30 295 55 60 160 65 268 12z"/>
<path d="M2905 3052 c-74 -26 -143 -69 -208 -131 -83 -79 -130 -146 -123 -174
12 -46 156 -217 258 -305 41 -35 130 -92 145 -92 14 0 97 117 136 191 56 107
90 245 81 325 -20 164 -136 239 -289 186z m193 -31 c48 -33 65 -75 70 -166 5
-99 -14 -179 -68 -290 -43 -87 -116 -195 -131 -195 -41 0 -255 198 -331 305
-51 72 -53 87 -22 126 136 169 269 253 389 246 44 -2 70 -9 93 -26z"/>
<path d="M899 2258 c-74 -101 -132 -285 -133 -423 0 -104 8 -138 34 -130 14 5
17 2 13 -13 -9 -35 25 -179 60 -255 38 -82 108 -167 138 -167 11 0 19 5 19 11
0 6 19 -15 43 -47 45 -61 141 -154 159 -154 6 0 -7 -12 -28 -26 -112 -74 -210
-207 -272 -366 -47 -119 -55 -149 -82 -308 -19 -112 -26 -286 -14 -349 l7 -31
1157 0 1158 0 6 31 c11 56 6 232 -9 329 -52 332 -177 573 -359 694 -21 14 -34
26 -28 26 18 0 114 93 159 154 24 32 43 53 43 47 0 -22 30 -11 70 26 55 49
116 177 136 283 9 45 13 91 11 102 -4 15 -1 18 13 13 26 -8 33 22 32 127 -3
156 -66 353 -142 438 l-31 35 24 -35 c67 -95 121 -252 132 -388 9 -95 -1 -180
-18 -163 -20 20 -24 12 -30 -72 -11 -134 -55 -246 -130 -325 -28 -29 -59 -43
-56 -24 6 33 -6 29 -35 -14 -69 -102 -195 -213 -262 -230 -25 -7 -27 -5 -21
22 l5 29 -31 -36 c-60 -70 -149 -126 -260 -165 -49 -17 -48 -17 -41 1 9 22 0
19 -44 -17 -22 -18 -48 -39 -58 -46 -16 -10 -15 -11 6 -1 14 6 33 18 42 26 10
9 24 13 32 10 31 -12 181 55 256 114 36 28 63 42 89 44 20 1 50 8 67 15 30 13
34 12 83 -24 58 -43 59 -38 -22 -115 -92 -86 -256 -179 -410 -231 -86 -30
-103 -43 -65 -54 122 -32 391 57 566 189 l71 53 25 -33 c15 -19 26 -36 26 -39
0 -3 15 -37 34 -76 51 -104 52 -118 15 -171 -66 -92 -150 -163 -236 -198 -36
-14 -35 -31 0 -31 43 0 223 71 277 110 28 20 29 20 35 1 20 -63 33 -345 19
-399 l-6 -22 -212 2 -211 3 -2 130 c-1 72 -2 149 -3 173 0 23 -4 42 -10 42 -5
0 -10 -13 -10 -28 0 -16 -6 -35 -12 -44 -36 -45 -203 -124 -300 -142 -42 -8
-51 -25 -15 -27 65 -4 131 6 207 32 47 16 93 32 103 36 16 5 18 -2 15 -83 l-3
-89 -212 -3 -213 -3 0 26 c0 43 -31 166 -55 222 -52 116 -161 189 -245 164
-117 -35 -203 -173 -226 -364 l-5 -48 -207 3 -207 3 -3 87 c-1 49 0 88 4 88 4
0 15 -6 23 -14 17 -14 74 -45 132 -70 55 -24 176 -43 190 -29 16 16 4 29 -33
37 -18 3 -73 26 -123 51 -107 53 -195 129 -195 169 0 14 -4 26 -10 26 -6 0
-10 -65 -10 -175 l0 -175 -215 0 -214 0 -7 37 c-8 41 2 318 12 334 4 7 14 3
28 -9 54 -49 229 -117 283 -110 l28 4 -30 14 c-94 44 -213 139 -266 211 -18
26 -18 28 2 90 11 35 27 78 35 96 33 73 62 130 79 160 l19 31 50 -45 c87 -78
283 -156 448 -179 84 -11 151 18 71 31 -145 24 -336 125 -440 233 l-53 55 42
37 c66 61 81 66 127 45 22 -10 49 -15 60 -12 14 3 38 -9 78 -40 80 -62 227
-128 259 -116 8 3 22 -1 32 -10 9 -8 28 -20 42 -26 21 -10 22 -9 6 1 -10 7
-36 28 -58 45 -44 37 -53 40 -44 18 7 -18 8 -18 -41 -1 -111 39 -200 95 -260
165 l-31 36 5 -29 c6 -27 4 -29 -21 -22 -67 17 -193 128 -262 230 -29 43 -41
47 -35 14 3 -19 -28 -5 -56 25 -75 78 -119 190 -130 324 -6 84 -10 92 -30 72
-17 -17 -27 68 -18 163 12 137 67 300 132 386 13 17 22 32 19 32 -3 0 -20 -19
-37 -42z m1170 -1872 c84 -44 161 -199 161 -325 l0 -51 -240 0 -240 0 0 38 c0
117 83 283 165 333 36 23 114 25 154 5z"/>
<path d="M1137 2271 c-45 -29 -105 -116 -138 -196 -33 -82 -37 -212 -9 -318
22 -89 51 -142 114 -212 48 -53 56 -50 31 12 -33 84 -45 169 -45 315 0 185 20
278 88 411 7 13 -12 8 -41 -12z"/>
<path d="M2702 2143 c49 -96 52 -107 51 -223 0 -95 -5 -128 -25 -188 -14 -40
-21 -75 -17 -77 4 -3 21 7 38 21 76 63 115 193 91 303 -15 70 -50 131 -90 155
-29 17 -54 21 -48 9z"/>
<path d="M1682 2102 c-24 -16 -31 -78 -13 -114 23 -48 56 -49 78 -3 15 32 16
40 3 78 -15 43 -40 57 -68 39z"/>
<path d="M2193 2030 c-22 -9 -40 -46 -28 -58 3 -3 17 7 30 23 22 28 25 29 56
18 38 -15 52 -7 25 13 -22 16 -50 17 -83 4z"/>
<path d="M1246 1926 c-37 -78 -56 -168 -56 -266 1 -218 102 -454 227 -525 43
-25 51 -14 20 27 -70 93 -115 215 -147 405 -12 68 -14 307 -4 371 9 59 -9 54
-40 -12z"/>
<path d="M2917 1785 c-4 -46 -18 -105 -37 -154 -37 -94 -144 -261 -229 -353
-82 -89 -82 -105 1 -69 102 44 206 157 273 296 36 75 65 175 65 222 0 53 -36
133 -60 133 -4 0 -10 -34 -13 -75z"/>
<path d="M1820 1605 c-11 -13 -11 -20 0 -39 16 -31 99 -76 139 -76 l31 0 0
-89 c0 -85 -1 -91 -26 -110 -34 -27 -74 -27 -107 -1 -14 11 -28 16 -31 11 -8
-13 42 -51 68 -52 38 -2 61 2 84 17 19 13 25 13 45 0 22 -15 45 -19 83 -17 26
1 76 39 68 52 -3 5 -17 0 -31 -11 -33 -26 -73 -26 -107 1 -25 19 -26 25 -26
110 l0 89 31 0 c40 0 123 45 139 76 16 29 0 54 -37 54 -32 0 -93 -26 -120 -52
l-23 -21 -23 21 c-49 46 -133 66 -157 37z"/>
<path d="M2205 1400 c-3 -5 1 -10 9 -10 9 0 16 5 16 10 0 6 -4 10 -9 10 -6 0
-13 -4 -16 -10z"/>
<path d="M1796 820 c25 -25 126 -50 204 -50 78 0 179 25 204 50 5 5 -15 0 -45
-12 -77 -31 -241 -31 -318 0 -30 12 -50 17 -45 12z"/>
</g>
</svg>
